<svg xmlns="http://www.w3.org/2000/svg" width="24" height="24" viewBox="0 0 24 24" fill="none">
  <path d="M18.5851 20.2552C16.2469 22.1384 13.2629 23.0279 10.2755 22.7323C7.2881 22.4366 4.53625 20.9794 2.61233 18.6743C-1.12444 14.1746 -0.824536 7.49178 3.3336 3.33103C7.48123 -0.817713 14.145 -1.12444 18.6518 2.59833C23.3003 6.43584 24.3064 13.5057 20.2188 18.6323C20.309 18.6737 20.3938 18.7258 20.4715 18.7876C21.5151 19.821 22.556 20.8572 23.5942 21.8961C24.0253 22.3281 24.119 22.8973 23.8461 23.3826C23.4525 24.086 22.5243 24.215 21.9312 23.6315C21.0848 22.7991 20.2518 21.9509 19.4188 21.1079C19.1384 20.8297 18.8677 20.5492 18.5851 20.2552ZM2.43164 11.4245C2.42757 12.6103 2.65821 13.7851 3.11027 14.8813C3.56233 15.9775 4.22686 16.9733 5.06555 17.8113C5.90423 18.6493 6.90047 19.3129 7.99682 19.7639C9.09317 20.2149 10.2679 20.4444 11.4534 20.439C12.6388 20.4337 13.8115 20.1937 14.9037 19.7328C15.9959 19.2719 16.9862 18.5993 17.8173 17.7538C18.6484 16.9082 19.3039 15.9065 19.746 14.8063C20.1882 13.7061 20.4082 12.5292 20.3935 11.3435C20.3612 6.39385 16.2998 2.39209 11.3485 2.43109C6.42708 2.47009 2.3994 6.53034 2.43164 11.4245Z" fill="white"/>
</svg>